<svg xmlns="http://www.w3.org/2000/svg" viewBox="0 0 1200 630">
  <defs>
    <radialGradient id="vig" cx="22%" cy="38%" r="75%">
      <stop offset="0%" stop-color="#15161c"/>
      <stop offset="60%" stop-color="#0a0a0c"/>
      <stop offset="100%" stop-color="#060606"/>
    </radialGradient>
    <linearGradient id="wm" x1="0" y1="0" x2="0" y2="1">
      <stop offset="0%" stop-color="#ffffff"/>
      <stop offset="100%" stop-color="#cfd9f5"/>
    </linearGradient>
  </defs>
  <rect width="1200" height="630" fill="url(#vig)"/>

  <!-- point-cloud texture, right side -->
  <g fill="#7aa2ff" opacity="0.5">
    <circle cx="870" cy="120" r="2.4"/><circle cx="905" cy="150" r="2"/><circle cx="940" cy="110" r="2.6"/>
    <circle cx="980" cy="160" r="2"/><circle cx="1020" cy="130" r="2.4"/><circle cx="1060" cy="170" r="2"/>
    <circle cx="900" cy="200" r="2.2"/><circle cx="950" cy="220" r="2"/><circle cx="1000" cy="195" r="2.4"/>
    <circle cx="1050" cy="230" r="2"/><circle cx="1090" cy="200" r="2.3"/><circle cx="930" cy="270" r="2"/>
    <circle cx="980" cy="290" r="2.4"/><circle cx="1030" cy="265" r="2"/><circle cx="1080" cy="300" r="2.2"/>
    <circle cx="1120" cy="260" r="2"/><circle cx="870" cy="330" r="2.3"/><circle cx="920" cy="360" r="2"/>
    <circle cx="970" cy="340" r="2.4"/><circle cx="1010" cy="375" r="2"/><circle cx="1060" cy="350" r="2.2"/>
    <circle cx="1110" cy="385" r="2"/><circle cx="940" cy="420" r="2.3"/><circle cx="990" cy="440" r="2"/>
    <circle cx="1040" cy="415" r="2.4"/><circle cx="1085" cy="445" r="2"/>
  </g>
  <g fill="#ffffff" opacity="0.18">
    <circle cx="888" cy="135" r="1.6"/><circle cx="965" cy="175" r="1.6"/><circle cx="1040" cy="150" r="1.6"/>
    <circle cx="915" cy="240" r="1.6"/><circle cx="1005" cy="250" r="1.6"/><circle cx="1075" cy="270" r="1.6"/>
    <circle cx="950" cy="305" r="1.6"/><circle cx="1100" cy="330" r="1.6"/><circle cx="900" cy="395" r="1.6"/>
    <circle cx="1015" cy="400" r="1.6"/>
  </g>
  <g stroke="#7aa2ff" stroke-width="1" opacity="0.22">
    <line x1="870" y1="120" x2="905" y2="150"/><line x1="905" y1="150" x2="940" y2="110"/>
    <line x1="940" y1="110" x2="980" y2="160"/><line x1="980" y1="160" x2="1020" y2="130"/>
    <line x1="1020" y1="130" x2="1060" y2="170"/><line x1="900" y1="200" x2="950" y2="220"/>
    <line x1="950" y1="220" x2="1000" y2="195"/><line x1="1000" y1="195" x2="1050" y2="230"/>
    <line x1="1050" y1="230" x2="1090" y2="200"/><line x1="930" y1="270" x2="980" y2="290"/>
    <line x1="980" y1="290" x2="1030" y2="265"/><line x1="1030" y1="265" x2="1080" y2="300"/>
    <line x1="1080" y1="300" x2="1120" y2="260"/><line x1="870" y1="330" x2="920" y2="360"/>
    <line x1="920" y1="360" x2="970" y2="340"/><line x1="970" y1="340" x2="1010" y2="375"/>
    <line x1="1010" y1="375" x2="1060" y2="350"/><line x1="1060" y1="350" x2="1110" y2="385"/>
    <line x1="940" y1="420" x2="990" y2="440"/><line x1="990" y1="440" x2="1040" y2="415"/>
    <line x1="1040" y1="415" x2="1085" y2="445"/>
  </g>

  <!-- left edge accent line -->
  <rect x="0" y="0" width="1200" height="630" fill="none" stroke="rgba(255,255,255,0.08)" stroke-width="2"/>

  <text x="100" y="180" font-family="Helvetica, Arial, sans-serif" font-weight="700" font-size="20" letter-spacing="6" fill="#7aa2ff">DIE ZUKUNFT DES SCHUHKAUFS</text>
  <text x="96" y="320" font-family="Georgia, 'Times New Roman', serif" font-weight="700" font-size="148" fill="url(#wm)">ANNÉES</text>
  <text x="100" y="392" font-family="Georgia, 'Times New Roman', serif" font-weight="500" font-size="34" fill="#f6f5f2">Nie wieder der falsche Schuh.</text>
  <text x="100" y="438" font-family="Helvetica, Arial, sans-serif" font-weight="400" font-size="22" fill="#a8a49c">3D-Fußvermessung. Passgenaue Empfehlung. Bester Partnerpreis.</text>

  <rect x="100" y="478" width="248" height="46" rx="23" fill="rgba(255,255,255,0.04)" stroke="rgba(255,255,255,0.14)"/>
  <circle cx="124" cy="501" r="5" fill="#7aa2ff"/>
  <text x="140" y="508" font-family="Helvetica, Arial, sans-serif" font-weight="500" font-size="18" fill="#f6f5f2">Bald im App Store</text>
</svg>
